<svg  viewBox="0 0 16 16"  xmlns="http://www.w3.org/2000/svg">
<path fill="currentColor" d="M13.2799 10.5333C13.1532 10.5333 13.0266 10.4867 12.9266 10.3867L8.5799 6.04C8.2599 5.72 7.7399 5.72 7.4199 6.04L3.07324 10.3867C2.8799 10.58 2.5599 10.58 2.36657 10.3867C2.27358 10.2926 2.22144 10.1656 2.22144 10.0333C2.22144 9.90104 2.27358 9.77409 2.36657 9.68L6.71324 5.33333C7.05539 4.9938 7.51788 4.80328 7.9999 4.80328C8.48193 4.80328 8.94442 4.9938 9.28657 5.33333L13.6332 9.68C13.8266 9.87333 13.8266 10.1933 13.6332 10.3867C13.5332 10.48 13.4066 10.5333 13.2799 10.5333Z" />
</svg>
