<svg  viewBox="0 0 24 24"  xmlns="http://www.w3.org/2000/svg">
<path fill="currentColor" d="M12 22.75C6.07 22.75 1.25 17.93 1.25 12C1.25 6.07 6.07 1.25 12 1.25C17.93 1.25 22.75 6.07 22.75 12C22.75 17.93 17.93 22.75 12 22.75ZM12 2.75C6.9 2.75 2.75 6.9 2.75 12C2.75 17.1 6.9 21.25 12 21.25C17.1 21.25 21.25 17.1 21.25 12C21.25 6.9 17.1 2.75 12 2.75Z" />
<path fill="currentColor" d="M9.16994 15.58C8.97994 15.58 8.78994 15.51 8.63994 15.36C8.50046 15.2189 8.42224 15.0284 8.42224 14.83C8.42224 14.6316 8.50046 14.4411 8.63994 14.3L14.2999 8.64C14.5899 8.35 15.0699 8.35 15.3599 8.64C15.6499 8.93 15.6499 9.41 15.3599 9.7L9.69994 15.36C9.55994 15.51 9.35994 15.58 9.16994 15.58Z" />
<path fill="currentColor" d="M14.8299 15.58C14.6399 15.58 14.4499 15.51 14.2999 15.36L8.63994 9.7C8.50046 9.55886 8.42224 9.36843 8.42224 9.17C8.42224 8.97157 8.50046 8.78114 8.63994 8.64C8.92994 8.35 9.40994 8.35 9.69994 8.64L15.3599 14.3C15.6499 14.59 15.6499 15.07 15.3599 15.36C15.2099 15.51 15.0199 15.58 14.8299 15.58Z" />
</svg>
